<?xml version="1.0" standalone="no"?>
<!DOCTYPE svg PUBLIC "-//W3C//DTD SVG 20010904//EN"
 "http://www.w3.org/TR/2001/REC-SVG-20010904/DTD/svg10.dtd">
<svg version="1.0" xmlns="http://www.w3.org/2000/svg"
 width="300.000000pt" height="60.000000pt" viewBox="0 0 300.000000 60.000000"
 preserveAspectRatio="xMidYMid meet">

<g transform="translate(0.000000,60.000000) scale(0.100000,-0.100000)"
fill="#000000" stroke="none">
<path d="M10 300 l0 -290 1490 0 1490 0 0 290 0 290 -1490 0 -1490 0 0 -290z
m2968 -3 l2 -277 -1477 2 -1478 3 -3 265 c-1 146 0 270 3 277 3 11 295 13
1477 11 l1473 -3 3 -278z"/>
<path d="M990 373 l0 -66 -25 23 c-38 36 -100 32 -137 -9 -63 -70 -20 -181 70
-181 25 0 49 8 66 21 l26 20 0 -20 c0 -12 6 -21 15 -21 13 0 15 23 15 150 0
127 -2 150 -15 150 -12 0 -15 -14 -15 -67z m-47 -55 c30 -15 46 -39 47 -65 1
-77 -79 -119 -135 -70 -21 17 -27 32 -27 62 0 65 60 103 115 73z"/>
<path d="M257 416 c-67 -25 -97 -66 -97 -136 0 -94 82 -156 182 -136 40 8 72
31 63 45 -4 8 -15 6 -35 -4 -16 -8 -48 -15 -71 -15 -33 0 -47 6 -75 34 -29 29
-34 41 -34 79 0 86 89 140 168 103 42 -21 67 -6 31 17 -36 23 -89 28 -132 13z"/>
<path d="M556 420 c-96 -29 -134 -153 -71 -228 33 -40 76 -55 134 -50 63 6
105 37 126 92 29 77 -4 146 -87 181 -41 17 -59 17 -102 5z m99 -34 c85 -36 93
-153 13 -200 -78 -47 -188 9 -188 96 0 35 37 88 73 103 41 18 60 18 102 1z"/>
<path d="M1360 286 l0 -146 80 0 c92 0 127 13 161 62 30 42 31 117 3 155 -41
54 -68 66 -159 71 l-85 5 0 -147z m170 96 c22 -10 42 -32 54 -56 17 -36 18
-43 5 -79 -21 -59 -55 -80 -131 -81 l-63 -1 -3 118 -3 117 53 0 c30 0 68 -8
88 -18z"/>
<path d="M1690 285 l0 -145 100 0 c121 0 135 18 18 22 l-83 3 -3 53 -3 52 75
0 c61 0 76 3 76 15 0 12 -15 15 -75 15 l-75 0 0 50 0 50 85 0 c69 0 85 3 85
15 0 12 -18 15 -100 15 l-100 0 0 -145z"/>
<path d="M1170 353 c-40 -13 -60 -29 -75 -60 -36 -75 15 -153 99 -153 42 0 87
22 74 36 -4 3 -21 1 -37 -6 -17 -7 -42 -9 -56 -6 -24 6 -65 42 -65 58 0 4 41
8 90 8 90 0 90 0 90 25 0 38 -26 83 -52 90 -41 12 -53 13 -68 8z m75 -48 c40
-39 32 -45 -55 -45 -49 0 -80 4 -80 10 0 23 50 60 80 60 19 0 40 -9 55 -25z"/>
<path d="M1967 353 c-4 -3 -7 -53 -7 -110 0 -85 3 -103 15 -103 12 0 15 13 15
60 0 32 5 70 11 83 22 48 97 58 119 17 6 -10 10 -50 10 -89 0 -56 3 -71 15
-71 12 0 15 14 15 69 0 77 15 105 62 117 21 4 33 0 52 -20 23 -22 26 -33 26
-96 0 -58 3 -70 16 -70 14 0 16 12 13 85 -3 71 -7 88 -26 107 -32 31 -86 28
-123 -7 -27 -26 -28 -26 -34 -7 -8 24 -55 43 -88 35 -13 -3 -33 -15 -45 -26
l-23 -20 0 26 c0 26 -9 34 -23 20z"/>
<path d="M2452 348 c-84 -23 -96 -160 -17 -196 105 -48 202 48 150 148 -24 46
-75 65 -133 48z m93 -43 c25 -24 32 -65 19 -100 -10 -25 -62 -47 -95 -40 -89
20 -71 165 21 165 19 0 40 -9 55 -25z"/>
<path d="M2670 250 c0 -122 15 -150 22 -40 4 82 26 113 78 113 51 0 65 -23 65
-108 0 -53 4 -75 13 -75 9 0 12 23 12 84 0 66 -4 89 -18 106 -24 30 -82 31
-122 2 l-30 -23 0 26 c0 14 -4 25 -10 25 -6 0 -10 -43 -10 -110z"/>
</g>
</svg>
